<?xml version="1.0" encoding="iso-8859-1"?>
<!-- Generator: Adobe Illustrator 23.0.1, SVG Export Plug-In . SVG Version: 6.00 Build 0)  -->
<svg version="1.1" id="Layer_1" xmlns="http://www.w3.org/2000/svg" xmlns:xlink="http://www.w3.org/1999/xlink" x="0px" y="0px"
	 viewBox="0 0 512 512" style="enable-background:new 0 0 512 512;" xml:space="preserve">
<g>
	<path style="fill-rule:evenodd;clip-rule:evenodd;fill:#006991;" d="M94.979,400.948l18.287-92.12h29.962l-18.278,92.12H94.979
		L94.979,400.948L94.979,400.948z M185.272,370.972h19.012l-5.117-33.997L185.272,370.972L185.272,370.972L185.272,370.972z
		 M143.239,400.948l45.325-92.12h29.604l18.29,92.12h-27.426l-1.829-10.966h-29.251l-4.737,10.966H143.239L143.239,400.948
		L143.239,400.948z M263.863,400.948l10.604-69.086h-26.322l4.395-23.397h80.417l-4.387,23.397h-24.848l-10.239,69.086H263.863
		L263.863,400.948L263.863,400.948z M364.394,370.972h19.004l-4.749-33.997L364.394,370.972L364.394,370.972L364.394,370.972z
		 M322.719,400.948l44.954-92.12h29.631l18.631,92.12h-28.15l-1.092-10.966h-29.617l-4.759,10.966H322.719L322.719,400.948
		L322.719,400.948z M481,204.64H340.638c-5.132,25.96-23.029,47.536-58.855,62.517c4.019,12.427,17.917,23.763,32.17,23.763h76.388
		c11.712,0,20.844-9.875,24.502-17.915h-77.503c-4.753-0.726-4.753-4.39-0.369-5.116h76.402c9.888,0,18.654-8.413,23.77-17.553
		h-88.466c-4.753-0.732-4.753-4.38,0-5.118h89.202c9.136,0,17.17-10.59,20.468-17.546h-97.971c-4.749-0.736-4.749-5.119,0-5.485
		h99.805C468.213,222.186,475.535,213.776,481,204.64L481,204.64L481,204.64z M31,204.64h140.377
		c5.117,25.96,23.038,47.536,58.864,62.517c-4.022,12.427-17.924,23.763-32.177,23.763h-76.398
		c-11.702,0-20.843-9.875-24.485-17.915h77.495c4.756-0.726,4.744-4.39,0.369-5.116H98.62c-9.856,0-18.626-8.413-23.741-17.553
		h88.453c4.758-0.732,4.758-4.38,0.01-5.118h-89.2c-9.137,0-17.183-10.59-20.471-17.546h97.969c4.751-0.736,4.751-5.119,0-5.485
		H51.846C43.8,222.186,36.5,213.776,31,204.64L31,204.64L31,204.64z M210.501,127.143c5.117,4.397,10.968,8.41,17.19,10.966
		c5.099-10.6,12.783-19.377,21.183-27.058C234.619,112.523,221.47,118.004,210.501,127.143L210.501,127.143L210.501,127.143z
		 M185.642,178.687h31.445c0.347-13.16,3.285-24.499,8.405-36.191c-6.954-2.925-13.175-6.942-19.012-11.692
		C193.684,143.598,186.379,160.405,185.642,178.687L185.642,178.687L185.642,178.687z M253.624,149.076v29.611H222.19
		c0.368-11.695,2.932-23.394,8.051-34.363C237.538,147.245,245.592,148.713,253.624,149.076L253.624,149.076L253.624,149.076z
		 M301.512,127.143c-5.11,4.397-10.958,8.41-17.171,10.966c-5.495-10.6-12.423-19.007-21.192-27.058
		C277.399,112.523,290.554,118.004,301.512,127.143L301.512,127.143L301.512,127.143z M326.37,178.687h-31.418
		c-0.366-12.797-3.3-24.499-8.051-36.191c6.582-2.925,12.799-6.942,18.634-11.692C318.705,144.323,325.651,160.775,326.37,178.687
		L326.37,178.687L326.37,178.687z M258.745,149.076v29.611h31.07c0-12.061-2.914-23.394-8.033-34.363
		C274.467,147.245,266.431,148.713,258.745,149.076L258.745,149.076L258.745,149.076z M210.501,234.983
		c5.117-4.021,10.968-8.404,17.19-10.6c5.463,10.6,12.419,19.377,21.183,27.055C234.619,249.603,221.466,244.495,210.501,234.983
		L210.501,234.983L210.501,234.983z M185.648,183.802h31.431c0.354,12.797,3.291,24.133,8.412,36.191
		c-6.954,2.932-13.175,6.942-19.016,11.702C194.054,218.908,186.379,202.084,185.648,183.802L185.648,183.802L185.648,183.802z
		 M253.624,213.416v-29.614H222.19c0.368,11.695,2.932,23.767,8.051,33.997C237.534,215.243,245.592,213.416,253.624,213.416
		L253.624,213.416L253.624,213.416z M301.525,234.983c-4.759-4.021-10.971-8.048-17.185-10.6
		c-5.495,10.6-12.423,19.377-21.192,27.055C277.399,249.603,290.546,244.495,301.525,234.983L301.525,234.983L301.525,234.983z
		 M326.37,183.802h-31.418c-0.366,12.797-2.934,24.499-8.051,36.191c6.582,2.932,12.795,6.942,18.634,11.702
		C317.97,218.908,325.651,201.718,326.37,183.802L326.37,183.802L326.37,183.802z M258.745,213.416v-29.614h31.07
		c0,11.695-2.914,23.404-8.033,33.997C274.837,215.243,266.431,213.416,258.745,213.416L258.745,213.416L258.745,213.416z
		 M253.616,113.984c-8.397,6.583-16.078,16.085-21.183,25.956c6.939,2.186,13.898,4.024,21.192,4.024L253.616,113.984
		L253.616,113.984L253.616,113.984z M258.745,113.984c8.054,6.583,15.722,16.085,20.851,25.956
		c-6.953,2.556-13.91,4.024-20.851,4.024V113.984L258.745,113.984L258.745,113.984z M253.624,248.512
		c-8.405-6.576-16.087-16.092-21.185-25.96c6.932-2.559,13.892-4.014,21.185-4.014V248.512L253.624,248.512L253.624,248.512z
		 M258.745,248.878c8.054-6.942,15.722-16.458,20.851-26.326c-6.956-2.19-13.899-4.014-20.851-4.014V248.878L258.745,248.878
		L258.745,248.878z"/>
</g>
</svg>
