<svg xmlns="http://www.w3.org/2000/svg" xmlns:xlink="http://www.w3.org/1999/xlink" width="3662" zoomAndPan="magnify" viewBox="0 0 2746.5 4119.749877" height="5493" preserveAspectRatio="xMidYMid meet" version="1.0"><defs><clipPath id="5dfb9288a1"><path d="M 1891 1551.488281 L 1919 1551.488281 L 1919 1578 L 1891 1578 Z M 1891 1551.488281 " clip-rule="nonzero"/></clipPath><clipPath id="96c3d39a2d"><path d="M 360 2676 L 812 2676 L 812 3126.503906 L 360 3126.503906 Z M 360 2676 " clip-rule="nonzero"/></clipPath><clipPath id="2d1bea5bbb"><path d="M 1826.558594 1244.207031 L 2017.773438 1244.207031 L 2017.773438 1551.652344 L 1826.558594 1551.652344 Z M 1826.558594 1244.207031 " clip-rule="nonzero"/></clipPath><clipPath id="9731dc4c1b"><path d="M 1107.597656 2176.753906 L 1255.320312 2176.753906 L 1255.320312 2328.226562 L 1107.597656 2328.226562 Z M 1107.597656 2176.753906 " clip-rule="nonzero"/></clipPath></defs><path fill="#ff6b00" d="M 832.773438 2568 C 831.132812 2561.441406 829.492188 2554.882812 829.492188 2548.324219 L 847.527344 2546.6875 C 847.527344 2553.246094 849.167969 2558.164062 850.808594 2564.722656 Z M 832.773438 2568 " fill-opacity="1" fill-rule="nonzero"/><path fill="#ff6b00" d="M 845.890625 2510.617188 L 827.855469 2510.617188 C 827.855469 2497.5 829.492188 2484.382812 831.132812 2472.90625 L 849.167969 2476.1875 C 847.527344 2487.664062 845.890625 2499.140625 845.890625 2510.617188 Z M 857.367188 2440.117188 L 839.332031 2435.199219 C 842.609375 2423.722656 847.527344 2410.605469 854.085938 2399.128906 L 870.480469 2407.328125 C 865.5625 2417.164062 860.644531 2428.640625 857.367188 2440.117188 Z M 888.515625 2376.175781 L 872.121094 2364.699219 C 878.679688 2353.222656 886.878906 2343.382812 895.074219 2333.546875 L 909.832031 2345.023438 C 901.632812 2356.5 895.074219 2364.699219 888.515625 2376.175781 Z M 934.425781 2320.429688 L 921.308594 2307.316406 C 931.144531 2299.117188 940.980469 2290.917969 950.820312 2282.722656 L 962.296875 2297.476562 C 952.457031 2305.675781 942.621094 2312.234375 934.425781 2320.429688 Z M 991.808594 2279.441406 L 983.609375 2263.046875 C 995.085938 2256.488281 1006.5625 2253.210938 1019.679688 2248.292969 L 1024.597656 2266.328125 C 1014.761719 2269.605469 1003.285156 2274.523438 991.808594 2279.441406 Z M 1280.367188 2261.40625 L 1280.367188 2243.371094 C 1293.480469 2243.371094 1304.957031 2241.734375 1316.433594 2240.09375 L 1318.074219 2258.128906 C 1306.597656 2259.769531 1293.480469 2261.40625 1280.367188 2261.40625 Z M 1242.65625 2261.40625 C 1229.539062 2261.40625 1218.0625 2259.769531 1204.945312 2259.769531 L 1206.585938 2241.734375 C 1218.0625 2243.371094 1231.179688 2243.371094 1242.65625 2243.371094 Z M 1060.667969 2258.128906 L 1057.390625 2240.09375 C 1068.867188 2238.453125 1081.980469 2236.816406 1095.097656 2236.816406 L 1096.738281 2254.851562 C 1083.621094 2254.851562 1072.144531 2256.488281 1060.667969 2258.128906 Z M 1168.878906 2256.488281 C 1157.398438 2256.488281 1144.285156 2254.851562 1132.808594 2254.851562 L 1132.808594 2236.816406 C 1145.921875 2236.816406 1157.398438 2238.453125 1170.515625 2238.453125 Z M 1355.785156 2251.570312 L 1352.503906 2233.535156 C 1363.980469 2230.257812 1375.457031 2226.976562 1386.933594 2222.058594 L 1393.492188 2240.09375 C 1382.015625 2245.011719 1368.898438 2249.929688 1355.785156 2251.570312 Z M 1427.921875 2222.058594 L 1418.085938 2205.664062 C 1427.921875 2199.105469 1436.121094 2190.90625 1444.320312 2182.710938 L 1457.433594 2195.828125 C 1449.238281 2205.664062 1439.398438 2215.5 1427.921875 2222.058594 Z M 1480.386719 2164.675781 L 1463.992188 2154.839844 C 1468.910156 2145 1473.828125 2133.523438 1478.75 2122.046875 L 1496.785156 2128.605469 C 1491.863281 2141.722656 1486.945312 2154.839844 1480.386719 2164.675781 Z M 1504.980469 2092.535156 L 1486.945312 2089.257812 C 1488.585938 2077.78125 1490.226562 2066.304688 1491.863281 2053.1875 L 1509.898438 2054.828125 C 1508.261719 2067.941406 1506.621094 2081.058594 1504.980469 2092.535156 Z M 1491.863281 2017.117188 C 1491.863281 2008.917969 1491.863281 2000.722656 1491.863281 1992.523438 L 1491.863281 1979.410156 L 1509.898438 1979.410156 L 1509.898438 1992.523438 C 1509.898438 2000.722656 1509.898438 2007.28125 1509.898438 2015.476562 Z M 1490.226562 1943.339844 L 1490.226562 1933.5 C 1490.226562 1923.664062 1490.226562 1913.828125 1490.226562 1905.628906 L 1508.261719 1905.628906 C 1508.261719 1915.464844 1508.261719 1923.664062 1508.261719 1933.5 L 1508.261719 1941.699219 Z M 1513.179688 1869.558594 L 1495.144531 1866.28125 C 1496.785156 1853.164062 1500.0625 1840.046875 1503.339844 1828.570312 L 1521.375 1833.488281 C 1516.457031 1846.605469 1514.820312 1858.082031 1513.179688 1869.558594 Z M 1532.851562 1802.339844 L 1516.457031 1794.140625 C 1518.097656 1792.5 1518.097656 1790.863281 1519.738281 1787.582031 C 1524.65625 1777.746094 1531.214844 1769.546875 1537.773438 1761.351562 L 1552.527344 1772.828125 C 1545.96875 1781.023438 1541.050781 1789.222656 1536.132812 1797.421875 C 1534.492188 1799.058594 1534.492188 1800.699219 1532.851562 1802.339844 Z M 1577.121094 1746.59375 L 1564.003906 1731.839844 C 1573.839844 1723.640625 1583.679688 1715.445312 1595.15625 1708.886719 L 1604.992188 1725.28125 C 1595.15625 1731.839844 1585.316406 1740.035156 1577.121094 1746.59375 Z M 1636.144531 1707.246094 L 1627.945312 1690.851562 C 1637.785156 1685.933594 1649.261719 1679.375 1662.375 1674.457031 L 1670.574219 1692.488281 C 1657.457031 1695.769531 1645.980469 1700.6875 1636.144531 1707.246094 Z M 1703.363281 1677.734375 L 1696.804688 1659.699219 L 1731.238281 1646.582031 L 1737.796875 1664.617188 Z M 1772.226562 1651.5 L 1765.667969 1633.46875 C 1777.144531 1628.546875 1788.621094 1625.269531 1800.097656 1620.351562 L 1808.292969 1638.386719 C 1795.179688 1643.304688 1783.703125 1646.582031 1772.226562 1651.5 Z M 1841.085938 1621.988281 L 1832.886719 1605.59375 C 1844.363281 1599.035156 1854.203125 1594.117188 1864.039062 1587.558594 L 1873.875 1602.316406 C 1864.039062 1608.875 1854.203125 1615.433594 1841.085938 1621.988281 Z M 1841.085938 1621.988281 " fill-opacity="1" fill-rule="nonzero"/><g clip-path="url(#5dfb9288a1)"><path fill="#ff6b00" d="M 1905.027344 1577.722656 L 1891.910156 1564.605469 C 1896.828125 1561.328125 1900.109375 1556.410156 1905.027344 1551.488281 L 1918.144531 1564.605469 C 1914.863281 1569.523438 1909.945312 1574.445312 1905.027344 1577.722656 Z M 1905.027344 1577.722656 " fill-opacity="1" fill-rule="nonzero"/></g><g clip-path="url(#96c3d39a2d)"><path fill="#00aeef" d="M 806.46875 2680.644531 C 789.65625 2663.851562 722.894531 2696.589844 700.527344 2718.980469 L 642.679688 2776.828125 L 391.332031 2732.472656 C 389.414062 2732.128906 387.441406 2732.742188 386.058594 2734.121094 L 362.175781 2758.023438 C 360.816406 2759.382812 360.183594 2761.320312 360.492188 2763.21875 C 360.796875 2765.117188 361.984375 2766.746094 363.710938 2767.605469 L 560.410156 2865.957031 L 477.105469 2972.550781 L 403.273438 2959.515625 C 401.335938 2959.207031 399.382812 2959.785156 398 2961.164062 L 380.078125 2979.085938 C 378.757812 2980.410156 378.105469 2982.304688 378.375 2984.164062 C 378.679688 2986.0625 379.792969 2987.691406 381.460938 2988.554688 L 442.261719 3021.292969 L 426.734375 3052.324219 C 425.585938 3054.625 426.042969 3057.40625 427.863281 3059.207031 C 429.035156 3060.355469 430.546875 3060.933594 432.101562 3060.933594 C 433.003906 3060.933594 433.921875 3060.742188 434.765625 3060.320312 L 465.796875 3044.792969 L 498.535156 3105.59375 C 499.4375 3107.242188 501.066406 3108.390625 502.925781 3108.699219 C 503.214844 3108.738281 503.480469 3108.738281 503.789062 3108.738281 C 505.359375 3108.738281 506.875 3108.140625 508.023438 3107.011719 L 525.945312 3089.070312 C 527.328125 3087.691406 527.941406 3085.734375 527.613281 3083.835938 L 514.582031 3009.964844 L 621.171875 2926.660156 L 719.523438 3123.363281 C 720.386719 3125.085938 722.035156 3126.273438 723.910156 3126.582031 C 724.238281 3126.640625 724.542969 3126.660156 724.910156 3126.660156 C 726.480469 3126.660156 727.957031 3126.046875 729.105469 3124.914062 L 753.027344 3101.011719 C 754.371094 3099.632812 755.019531 3097.675781 754.675781 3095.742188 L 710.320312 2844.394531 L 768.171875 2786.546875 C 790.558594 2764.175781 823.277344 2697.453125 806.46875 2680.644531 Z M 806.46875 2680.644531 " fill-opacity="1" fill-rule="nonzero"/></g><g clip-path="url(#2d1bea5bbb)"><path fill="#00aeef" d="M 1922.191406 1244.0625 C 1869.636719 1244.0625 1826.871094 1286.828125 1826.871094 1339.390625 C 1826.871094 1390.917969 1916.75 1542.128906 1920.578125 1548.539062 L 1922.191406 1551.257812 L 1923.816406 1548.539062 C 1927.648438 1542.132812 2017.523438 1390.914062 2017.523438 1339.386719 C 2017.511719 1286.828125 1974.75 1244.0625 1922.191406 1244.0625 Z M 1922.191406 1383.894531 C 1899.464844 1383.894531 1880.964844 1365.398438 1880.964844 1342.664062 C 1880.964844 1319.929688 1899.460938 1301.433594 1922.191406 1301.433594 C 1944.925781 1301.433594 1963.425781 1319.925781 1963.425781 1342.664062 C 1963.425781 1365.398438 1944.925781 1383.894531 1922.191406 1383.894531 Z M 1922.191406 1383.894531 " fill-opacity="1" fill-rule="nonzero"/></g><g clip-path="url(#9731dc4c1b)"><path fill="#ff6b00" d="M 1108.226562 2176.757812 L 1255.496094 2251.96875 L 1107.609375 2328.5 C 1131.433594 2286.554688 1150.582031 2242.898438 1108.226562 2176.757812 Z M 1108.226562 2176.757812 " fill-opacity="1" fill-rule="nonzero"/></g></svg>